:SAMPLES-PER-SECOND 30
:FULLY-SPECIFIED
:DEGREES
327
root  45.6915 31.3799 1.89824 1.98344 -12.2445 9.23505
RightUpLeg  -0.0337055 6.49973 -4.21314
RightLeg  58.8752 -2.64186 -3.87346
RightFoot  1.67983 0.0061369 -0.0410389
RightToes  -30.7585 -0.149179 -0.257203
Spine  5.9057 1.31324 -3.8748
Spine1  11.106 3.55215 -8.16647
HEad  -3.49949 -44.4547 36.9503
LeftShoulder1  0 -2.42657e-020 -4.95415e-022
LeftArm  -15.1536 19.9746 -73.0012
LeftForeArm  45.0355 -52.9425 -13.5215
LeftHand  0.396754 -9.48718 -5.1522
RightShoulder  0 2.42657e-020 1.07489e-018
RightArm  -17.0244 -2.43139 83.58
RightForeArm  39.3712 34.9218 7.06189
RightHand  -1.56616 19.6482 -8.659
LeftUpLeg  -32.2664 -4.22904 -5.54875
LeftLeg  33.369 -8.22223 -4.66524
LeftFoot  3.52971 0.0160569 -0.521127
LeftToes  -25.8119 3.33339e-006 -4.73431e-007
328
root  45.6942 30.5375 4.09512 -0.554031 -12.4899 10.498
RightUpLeg  -3.93917 5.5791 -6.04936
RightLeg  70.9227 -2.41818 -5.9192
RightFoot  -4.058 0.00833832 0.613016
RightToes  -25.6202 -0.114953 -0.220403
Spine  7.05122 0.78153 -4.20781
Spine1  13.2115 2.73277 -8.94708
HEad  -9.89704 -46.5753 41.4223
LeftShoulder1  0 -2.42657e-020 -4.95415e-022
LeftArm  -10.9448 16.1221 -69.908
LeftForeArm  44.3832 -50.5299 -12.3743
LeftHand  0.433721 -10.0569 -5.29981
RightShoulder  0 2.42657e-020 1.07489e-018
RightArm  -20.4337 -1.49846 85.9808
RightForeArm  38.2746 32.1804 6.35971
RightHand  -1.8711 18.8297 -10.8826
LeftUpLeg  -32.6341 -1.32284 -8.30802
LeftLeg  45.1334 -8.22748 -7.20975
LeftFoot  -3.70155 0.0259735 0.803778
LeftToes  -22.6164 3.33339e-006 -4.73431e-007
329
root  45.6038 29.8795 6.23646 -2.10069 -14.8352 10.7124
RightUpLeg  -9.94849 5.06548 -7.45989
RightLeg  79.8046 -1.88838 -7.95561
RightFoot  -6.68267 0.0450562 1.14939
RightToes  -23.653 -0.102745 -0.205525
Spine  7.44454 0.403981 -4.22051
Spine1  13.9447 1.9986 -8.98166
HEad  -13.6627 -50.0136 44.3276
LeftShoulder1  0 -2.42657e-020 -4.95415e-022
LeftArm  -8.39574 12.679 -68.7176
LeftForeArm  44.6351 -46.368 -10.6557
LeftHand  0.486038 -10.2571 -5.78531
RightShoulder  0 2.42657e-020 1.07489e-018
RightArm  -23.2258 -2.89415 88.2362
RightForeArm  39.1368 31.0006 6.06951
RightHand  -2.00078 18.3953 -11.9442
LeftUpLeg  -31.124 -0.0344765 -9.14516
LeftLeg  52.1107 -6.09691 -6.83652
LeftFoot  -10.913 0.174386 1.82543
LeftToes  -21.5616 3.33339e-006 -4.73431e-007
330
root  45.4074 29.5928 8.24905 -3.05049 -17.0932 10.5746
RightUpLeg  -16.8397 3.48495 -8.22304
RightLeg  84.5932 -1.3775 -9.15283
RightFoot  -10.528 0.139898 1.89601
RightToes  -19.8731 -0.0807526 -0.175801
Spine  7.47374 -0.491024 -3.98377
Spine1  14.1096 0.0793731 -8.50896
HEad  -16.0858 -53.3211 46.6856
LeftShoulder1  0 -2.42657e-020 -4.95415e-022
LeftArm  -8.20539 9.7776 -69.312
LeftForeArm  47.4113 -40.689 -8.70148
LeftHand  0.546983 -11.0493 -6.02429
RightShoulder  0 2.42657e-020 1.07489e-018
RightArm  -25.0004 -5.74564 89.9324
RightForeArm  38.348 30.4896 5.94744
RightHand  -1.96265 18.6693 -11.532
LeftUpLeg  -28.1798 0.523278 -9.65608
LeftLeg  55.2559 -4.19706 -5.27965
LeftFoot  -16.2633 0.279373 1.95504
LeftToes  -18.9291 3.33339e-006 -4.73431e-007
331
root  45.0688 29.7216 10.2104 -3.78612 -19.9602 9.8942
RightUpLeg  -23.3275 2.00564 -7.47271
RightLeg  84.5715 -1.43075 -9.45365
RightFoot  -13.5444 0.241219 2.40877
RightToes  -17.7999 -0.0695366 -0.158901
Spine  7.37422 -1.56474 -3.44929
Spine1  14.1234 -2.32215 -7.42453
HEad  -17.3154 -55.286 47.4119
LeftShoulder1  0 -2.42657e-020 -4.95415e-022
LeftArm  -10.0625 8.94264 -71.0899
LeftForeArm  53.09 -36.7843 -7.54128
LeftHand  0.60892 -12.2232 -6.05565
RightShoulder  0 2.42657e-020 1.07489e-018
RightArm  -25.408 -8.83102 90.3757
RightForeArm  37.9685 29.4688 5.70615
RightHand  -1.86462 18.5982 -10.9851
LeftUpLeg  -23.1447 1.33783 -9.56962
LeftLeg  54.4294 -2.6441 -3.23999
LeftFoot  -19.6298 0.249916 1.44454
LeftToes  -18.1355 3.33339e-006 -4.73431e-007
332
root  44.6135 30.2369 12.1536 -4.41351 -23.2697 9.1949
RightUpLeg  -28.2809 0.640982 -5.73437
RightLeg  79.6099 -2.34694 -9.62495
RightFoot  -15.525 0.326379 2.77161
RightToes  -16.2873 -0.0617431 -0.146321
Spine  7.26511 -2.77098 -2.89968
Spine1  14.1287 -4.99281 -6.36251
HEad  -16.747 -55.2121 46.4491
LeftShoulder1  0 -2.42657e-020 -4.95415e-022
LeftArm  -11.7769 10.1028 -72.6467
LeftForeArm  55.6941 -36.0205 -7.32521
LeftHand  0.557513 -12.5053 -5.45807
RightShoulder  0 2.42657e-020 1.07489e-018
RightArm  -24.7905 -11.3821 89.8308
RightForeArm  38.6368 28.0764 5.38372
RightHand  -1.67835 18.3057 -10.0224
LeftUpLeg  -16.219 2.13129 -9.55601
LeftLeg  49.5185 -0.882155 -0.91552
LeftFoot  -21.2165 0.0908463 0.485034
LeftToes  -15.6888 3.33339e-006 -4.73431e-007
333
root  44.0551 31.0026 14.0695 -4.10181 -27.4413 7.99649
RightUpLeg  -31.4235 -0.425692 -2.49996
RightLeg  69.4436 -4.23215 -9.46134
RightFoot  -16.0844 0.362473 2.94268
RightToes  -15.7765 -0.0591869 -0.142027
Spine  6.86452 -3.71136 -2.19435
Spine1  13.5223 -7.12674 -4.98637
HEad  -14.8457 -53.9734 44.4387
LeftShoulder1  0 -2.42657e-020 -4.95415e-022
LeftArm  -12.9591 12.4578 -74.4853
LeftForeArm  55.0759 -37.0679 -7.6161
LeftHand  0.496519 -12.238 -5.00175
RightShoulder  0 2.42657e-020 1.07489e-018
RightArm  -26.0315 -13.7908 88.7142
RightForeArm  39.4389 26.5231 5.03399
RightHand  -1.46692 18.8572 -8.44946
LeftUpLeg  -9.03259 2.76826 -9.28863
LeftLeg  42.2774 1.69976 1.35048
LeftFoot  -20.2737 -0.130883 -0.732042
LeftToes  -13.6622 3.33339e-006 -4.73431e-007
334
root  43.421 31.8563 15.9619 -3.10347 -32.3509 6.94208
RightUpLeg  -32.2253 -1.55175 1.50319
RightLeg  54.4635 -6.7014 -8.19303
RightFoot  -14.0034 0.272075 2.59273
RightToes  -18.0299 -0.0707508 -0.160797
Spine  6.18228 -4.16505 -1.36578
Spine1  12.2768 -8.26672 -3.22515
HEad  -13.281 -52.5661 41.749
LeftShoulder1  0 -2.42657e-020 -4.95415e-022
LeftArm  -14.1784 15.0099 -77.3482
LeftForeArm  53.4408 -38.1056 -7.91485
LeftHand  0.469394 -11.8257 -4.90273
RightShoulder  0 2.42657e-020 1.07489e-018
RightArm  -27.5834 -16.8128 86.3405
RightForeArm  40.2119 25.6376 4.8386
RightHand  -1.41514 19.1422 -8.01064
LeftUpLeg  -3.39284 4.20266 -9.09393
LeftLeg  36.1259 3.90422 2.4738
LeftFoot  -15.1114 -0.157873 -1.19019
LeftToes  -16.9954 3.33339e-006 -4.73431e-007
335
root  42.6944 32.5895 17.8591 -2.565 -36.9714 6.88861
RightUpLeg  -30.3002 -3.38265 5.43694
RightLeg  36.6809 -6.99432 -4.53584
RightFoot  -6.44295 0.0294556 0.900975
RightToes  -27.1404 -0.124734 -0.231608
Spine  5.60485 -4.37745 -0.94786
Spine1  11.1811 -8.79319 -2.29961
HEad  -12.0822 -51.163 40.0479
LeftShoulder1  0 -2.42657e-020 -4.95415e-022
LeftArm  -15.6585 16.8136 -79.8455
LeftForeArm  52.5179 -39.5837 -8.35264
LeftHand  0.530211 -11.5943 -5.5921
RightShoulder  0 2.42657e-020 1.07489e-018
RightArm  -30.816 -19.911 84.5144
RightForeArm  41.7348 25.8904 4.89187
RightHand  -1.43105 19.5747 -7.91429
LeftUpLeg  0.170419 9.14561 -8.38246
LeftLeg  33.2376 2.13922 1.2084
LeftFoot  -6.76372 -0.017059 -0.288688
LeftToes  -27.5903 3.33339e-006 -4.73431e-007
336
root  41.9758 33.0136 19.8066 -3.06766 -40.8949 8.59648
RightUpLeg  -28.6374 -8.87852 9.33221
RightLeg  23.0323 -2.84324 -1.00065
RightFoot  4.60088 0.0283057 -0.327009
RightToes  -37.9797 -0.202549 -0.303427
Spine  5.08715 -4.35057 -1.04388
Spine1  10.2018 -8.74567 -2.41046
HEad  -12.107 -50.3649 39.8553
LeftShoulder1  0 -2.42657e-020 -4.95415e-022
LeftArm  -15.7953 17.4163 -81.3629
LeftForeArm  52.2523 -41.1693 -8.84269
LeftHand  0.599034 -11.6486 -6.24116
RightShoulder  0 2.42657e-020 1.07489e-018
RightArm  -34.0311 -23.4255 83.0551
RightForeArm  42.1831 27.5226 5.2538
RightHand  -1.50454 19.607 -8.32368
LeftUpLeg  0.970281 15.2677 -7.98983
LeftLeg  35.568 -2.99731 -1.86771
LeftFoot  1.9214 0.00229601 -0.136929
LeftToes  -35.1396 3.33339e-006 -4.73431e-007
337
root  41.2459 33.0401 21.7573 -4.66931 -43.9962 10.6507
RightUpLeg  -27.7668 -16.6796 13.5519
RightLeg  17.513 -0.947252 -0.233387
RightFoot  14.0004 0.0889437 -0.34679
RightToes  -35.1524 -0.180962 -0.286134
Spine  4.78266 -4.24247 -1.27873
Spine1  9.62943 -8.51082 -2.82712
HEad  -12.3221 -49.9834 39.5749
LeftShoulder1  0 -2.42657e-020 -4.95415e-022
LeftArm  -14.5367 17.0237 -82.0075
LeftForeArm  52.1531 -42.8458 -9.38796
LeftHand  0.588915 -11.7473 -6.09334
RightShoulder  0 2.42657e-020 1.07489e-018
RightArm  -37.5839 -26.8896 81.8495
RightForeArm  42.3412 29.7267 5.76133
RightHand  -1.54107 19.5468 -8.56177
LeftUpLeg  -0.400949 17.4468 -7.93056
LeftLeg  43.4634 -7.61582 -6.3029
LeftFoot  7.8556 0.0956899 -1.39361
LeftToes  -34.425 3.33339e-006 -4.73431e-007
338
root  40.4522 32.6918 23.6764 -7.21185 -46.7441 12.1592
RightUpLeg  -25.3212 -16.4547 14.1767
RightLeg  19.1262 -9.29479 -2.55334
RightFoot  2.85669 0.0233093 -0.557117
RightToes  14.0802 0.018398 0.136173
Spine  4.96538 -3.93887 -1.38938
Spine1  9.97134 -7.90316 -2.98818
HEad  -13.0003 -49.7659 39.6362
LeftShoulder1  0 -2.42657e-020 -4.95415e-022
LeftArm  -12.4628 14.9623 -82.3283
LeftForeArm  51.8696 -43.4819 -9.60347
LeftHand  0.568842 -11.7495 -5.89755
RightShoulder  0 2.42657e-020 1.07489e-018
RightArm  -40.1793 -29.7526 80.2646
RightForeArm  41.3248 32.171 6.35366
RightHand  -1.45933 19.3983 -8.15554
LeftUpLeg  -2.17763 17.2985 -7.23587
LeftLeg  53.5499 -10.4374 -12.1361
LeftFoot  13.614 0.466161 -3.90382
LeftToes  -40.4965 3.33339e-006 -4.73431e-007
